<svg width="33" height="33" viewBox="0 0 33 33" fill="none" xmlns="http://www.w3.org/2000/svg">
<g clip-path="url(#clip0_401_314)">
<path d="M31.7197 15.6592L17.5987 1.53809C16.6069 0.546399 15.2885 0 13.886 0H3.00003C1.34543 0 0 1.34543 0 3.00003V13.886C0 15.2886 0.546399 16.607 1.53809 17.5987L15.6592 31.7197C16.4729 32.5335 17.5994 33 18.75 33C19.9006 33 21.027 32.5335 21.8408 31.7197L31.7197 21.8408C32.5334 21.0271 32.9999 19.9006 32.9999 18.75C32.9999 17.5994 32.5335 16.4729 31.7197 15.6592ZM30.6592 20.7803L20.7803 30.6592C19.711 31.7285 17.7891 31.7285 16.7198 30.6592L2.59861 16.5381C1.89035 15.8298 1.49998 14.8879 1.49998 13.886V3.00003C1.49998 2.17315 2.17308 1.50005 2.99995 1.50005H13.886C14.888 1.50005 15.8299 1.89042 16.5381 2.59868L30.6592 16.7198C31.1939 17.2544 31.5 17.9942 31.5 18.75C31.5 19.5059 31.1939 20.2456 30.6592 20.7803Z" fill="#5FC400"/>
<path d="M6.00002 3.00003C4.3455 3.00003 3 4.34546 3 6.00006C3 7.65465 4.3455 9.00001 6.00002 9.00001C7.65455 9.00001 9.00005 7.65458 9.00005 5.99999C9.00005 4.34539 7.65462 3.00003 6.00002 3.00003ZM6.00002 7.50003C5.17315 7.50003 4.50005 6.82693 4.50005 5.99999C4.50005 5.17311 5.17315 4.50001 6.00002 4.50001C6.8269 4.50001 7.5 5.17311 7.5 5.99999C7.50007 6.82693 6.82697 7.50003 6.00002 7.50003Z" fill="#5FC400"/>
<path d="M12.9507 15.0726C13.8281 14.1951 13.8281 12.7677 12.9507 11.8902C12.6585 11.598 12.6585 11.1219 12.9507 10.8304L13.4825 10.2994C13.763 10.016 14.2574 10.016 14.5423 10.2994C14.6836 10.4415 14.762 10.6297 14.762 10.8297C14.762 11.0304 14.6844 11.2179 14.5423 11.3592C14.2493 11.6522 14.2493 12.1268 14.5416 12.4205C14.8346 12.7135 15.3099 12.7127 15.6029 12.4212C16.0277 11.9964 16.2621 11.431 16.2621 10.8297C16.2621 10.2291 16.0277 9.66371 15.6029 9.23888C14.7533 8.38852 13.2694 8.3907 12.4213 9.23817L11.8895 9.76917C11.0135 10.6474 11.0135 12.0741 11.8902 12.9508C12.1824 13.2438 12.1824 13.7191 11.8902 14.0121L11.3592 14.5424C11.0772 14.8266 10.5843 14.8251 10.2994 14.5424C10.158 14.4003 10.0796 14.2121 10.0796 14.0121C10.0796 13.8114 10.1573 13.6232 10.2994 13.4826C10.5924 13.1896 10.5924 12.715 10.3001 12.4213C10.0071 12.1283 9.53176 12.1291 9.23877 12.4206C8.81394 12.8454 8.57959 13.4108 8.57959 14.0121C8.57959 14.6127 8.81394 15.1781 9.23877 15.6029C9.6636 16.0278 10.229 16.2621 10.8296 16.2621C11.4309 16.2621 11.9964 16.0278 12.4204 15.6029L12.9507 15.0726Z" fill="#5FC400"/>
<path d="M17.7239 17.7239C18.0169 17.4309 18.0169 16.9563 17.7239 16.6634L16.6634 15.6029L18.2542 14.012L19.8457 15.6029C20.1387 15.8959 20.6133 15.8959 20.9063 15.6029C21.1993 15.3099 21.1993 14.8353 20.9063 14.5423L18.7844 12.4212C18.4914 12.1282 18.0168 12.1282 17.7239 12.4212L12.4212 17.724C12.1282 18.017 12.1282 18.4916 12.4212 18.7845L14.5423 20.9063C14.6887 21.0528 14.8807 21.1261 15.0726 21.1261C15.2645 21.1261 15.4563 21.0528 15.6029 20.9063C15.8959 20.6133 15.8959 20.1387 15.6029 19.8458L14.012 18.2543L15.6029 16.6635L16.6634 17.724C16.8099 17.8704 17.0018 17.9437 17.1937 17.9437C17.3855 17.9436 17.5775 17.8704 17.7239 17.7239Z" fill="#5FC400"/>
<path d="M20.9063 17.7231C20.9063 17.7238 20.9063 17.7238 20.9063 17.7238L17.7231 20.9062C16.8479 21.7836 16.8479 23.2104 17.7238 24.0878C18.1626 24.5266 18.7389 24.7463 19.3147 24.7463C19.8911 24.7463 20.4675 24.5266 20.9062 24.0878L24.0878 20.9062C24.9653 20.0287 24.9653 18.6013 24.0878 17.7231C23.2105 16.8472 21.7837 16.8472 20.9063 17.7231ZM23.0274 19.8457L19.8457 23.0274C19.5535 23.3196 19.0774 23.3211 18.7852 23.0274C18.493 22.7351 18.493 22.2591 18.7845 21.9668L21.9668 18.7852C22.2584 18.4922 22.7359 18.493 23.0274 18.7845C23.3196 19.0774 23.3196 19.5527 23.0274 19.8457Z" fill="#5FC400"/>
</g>
<defs>
<clipPath id="clip0_401_314">
<rect width="33" height="33" fill="white"/>
</clipPath>
</defs>
</svg>
